<svg width="21" height="20" viewBox="0 0 21 20" fill="none" xmlns="http://www.w3.org/2000/svg">
<rect x="0.925346" y="11.2273" width="0.925325" height="0.863636" fill="#000000"/>
<rect x="0.925346" y="7.77271" width="0.925325" height="0.863636" fill="#000000"/>
<rect x="0.925346" y="6.90906" width="3.23864" height="0.863636" fill="#000000"/>
<rect x="2.77599" y="11.6591" width="1.38799" height="0.863636" fill="#000000"/>
<rect x="1.38798" y="12.0909" width="2.31331" height="0.863636" fill="#000000"/>
<rect x="1.38798" y="7.34094" width="2.77597" height="0.863636" fill="#000000"/>
<rect x="1.38798" y="11.6591" width="2.31331" height="0.863636" fill="#000000"/>
<rect x="0.462677" y="7.34094" width="1.85065" height="0.863636" fill="#000000"/>
<rect x="0.462677" y="11.6591" width="1.85065" height="0.863636" fill="#000000"/>
<rect x="2.77599" y="12.5227" width="1.38799" height="1.72727" fill="#000000"/>
<rect width="1.38799" height="0.863636" transform="matrix(1 0 0 -1 3.70132 7.34094)" fill="#000000"/>
<rect x="2.31332" y="13.8182" width="1.38799" height="0.863636" fill="#000000"/>
<rect x="1.85065" y="14.25" width="1.38799" height="0.863636" fill="#000000"/>
<rect x="1.38798" y="14.6819" width="1.38799" height="1.29545" fill="#000000"/>
<rect x="1.85065" y="15.5454" width="1.38799" height="0.863636" fill="#000000"/>
<rect x="2.31332" y="15.9773" width="1.38799" height="0.863636" fill="#000000"/>
<rect x="2.77599" y="16.4091" width="1.38799" height="0.863636" fill="#000000"/>
<rect x="3.23866" y="16.8409" width="1.38799" height="0.863636" fill="#000000"/>
<rect x="3.70132" y="17.2727" width="1.38799" height="0.863636" fill="#000000"/>
<rect x="4.16396" y="17.7046" width="1.38799" height="0.863636" fill="#000000"/>
<rect x="4.62663" y="17.2727" width="1.38799" height="0.863636" fill="#000000"/>
<rect x="5.08929" y="16.8409" width="1.38799" height="0.863636" fill="#000000"/>
<rect x="5.55196" y="16.4091" width="1.38799" height="0.863636" fill="#000000"/>
<rect x="6.01463" y="16.4091" width="1.85065" height="0.863636" fill="#000000"/>
<rect x="7.86527" y="12.9546" width="1.38799" height="0.863636" fill="#000000"/>
<rect x="7.4026" y="12.5227" width="1.38799" height="0.863636" fill="#000000"/>
<rect x="6.93993" y="12.0909" width="1.38799" height="0.863636" fill="#000000"/>
<rect x="12.0292" y="12.0909" width="1.38799" height="0.863636" fill="#000000"/>
<rect x="11.5666" y="12.5227" width="1.38799" height="0.863636" fill="#000000"/>
<rect x="6.47726" y="11.6591" width="1.38799" height="0.863636" fill="#000000"/>
<rect width="1.38799" height="0.863636" transform="matrix(-1 0 0 1 13.8799 11.6591)" fill="#000000"/>
<rect x="6.01463" y="11.2273" width="1.38799" height="0.863636" fill="#000000"/>
<rect width="1.38799" height="0.863636" transform="matrix(-1 0 0 1 14.3425 11.2273)" fill="#000000"/>
<rect x="6.47726" y="6.90906" width="1.38799" height="0.863636" fill="#000000"/>
<rect width="1.38799" height="0.863636" transform="matrix(-1 0 0 1 13.8799 6.90906)" fill="#000000"/>
<rect x="7.86527" y="5.61365" width="1.38799" height="0.863636" fill="#000000"/>
<rect width="1.38799" height="0.863636" transform="matrix(-1 0 0 1 12.4919 5.61365)" fill="#000000"/>
<rect x="8.32794" y="5.61365" width="0.925325" height="0.863636" fill="#000000"/>
<rect width="0.925325" height="0.863636" transform="matrix(-1 0 0 1 12.0292 5.61365)" fill="#000000"/>
<rect x="8.32794" y="5.18188" width="0.925325" height="0.863636" fill="#000000"/>
<rect x="8.79061" y="11.6591" width="0.925325" height="0.863636" fill="#000000"/>
<rect x="10.6413" y="11.6591" width="0.925325" height="0.863636" fill="#000000"/>
<rect x="11.1039" y="11.2273" width="0.925325" height="0.863636" fill="#000000"/>
<rect x="11.5666" y="10.7954" width="0.925325" height="0.863636" fill="#000000"/>
<rect x="7.4026" y="10.7954" width="0.925325" height="0.863636" fill="#000000"/>
<rect x="7.86527" y="11.2273" width="0.925325" height="0.863636" fill="#000000"/>
<rect width="0.925325" height="1.72727" transform="matrix(-1 0 0 1 12.0292 6.04541)" fill="#000000"/>
<rect x="7.86527" y="6.47729" width="0.925325" height="0.863636" fill="#000000"/>
<rect width="0.925325" height="0.863636" transform="matrix(-1 0 0 1 12.4919 6.47729)" fill="#000000"/>
<rect x="6.01463" y="8.20459" width="1.38799" height="0.863636" fill="#000000"/>
<rect width="1.38799" height="0.863636" transform="matrix(-1 0 0 1 14.3425 8.20459)" fill="#000000"/>
<rect x="6.93993" y="11.6591" width="1.38799" height="0.863636" fill="#000000"/>
<rect width="1.38799" height="0.863636" transform="matrix(-1 0 0 1 13.4172 11.6591)" fill="#000000"/>
<rect x="8.32794" y="12.0909" width="4.16396" height="1.29545" fill="#000000"/>
<rect x="7.86527" y="11.6591" width="0.925325" height="0.863636" fill="#000000"/>
<rect width="0.925325" height="0.863636" transform="matrix(-1 0 0 1 12.4919 11.6591)" fill="#000000"/>
<rect x="7.4026" y="11.2273" width="0.925325" height="0.863636" fill="#000000"/>
<rect x="8.32794" y="11.6591" width="0.925325" height="0.863636" fill="#000000"/>
<rect width="0.925325" height="0.863636" transform="matrix(-1 0 0 1 12.9546 11.2273)" fill="#000000"/>
<rect x="5.55196" y="7.77271" width="0.925325" height="0.863636" fill="#000000"/>
<rect width="0.925325" height="0.863636" transform="matrix(-1 0 0 1 14.8052 7.77271)" fill="#000000"/>
<rect x="5.08929" y="8.20459" width="0.925325" height="0.863636" fill="#000000"/>
<rect x="6.93993" y="10.7954" width="0.925325" height="0.863636" fill="#000000"/>
<rect width="0.925325" height="0.863636" transform="matrix(-1 0 0 1 13.4172 10.7954)" fill="#000000"/>
<rect x="6.93993" y="11.2273" width="0.925325" height="0.863636" fill="#000000"/>
<rect width="0.925325" height="0.863636" transform="matrix(-1 0 0 1 13.4172 11.2273)" fill="#000000"/>
<rect x="6.47726" y="10.7954" width="0.925325" height="0.863636" fill="#000000"/>
<rect width="0.925325" height="0.863636" transform="matrix(-1 0 0 1 13.8799 10.7954)" fill="#000000"/>
<rect width="0.925325" height="0.863636" transform="matrix(-1 0 0 1 12.9546 10.3636)" fill="#000000"/>
<rect width="0.925325" height="0.863636" transform="matrix(-1 0 0 1 12.4919 12.9546)" fill="#000000"/>
<rect x="6.47726" y="10.3636" width="0.925325" height="0.863636" fill="#000000"/>
<rect width="0.925325" height="0.863636" transform="matrix(-1 0 0 1 13.8799 10.3636)" fill="#000000"/>
<rect x="6.93993" y="7.77271" width="0.925325" height="0.863636" fill="#000000"/>
<rect width="0.925325" height="0.863636" transform="matrix(-1 0 0 1 13.4172 7.77271)" fill="#000000"/>
<rect x="7.4026" y="7.34094" width="0.925325" height="0.863636" fill="#000000"/>
<rect width="1.38799" height="0.863636" transform="matrix(-1 0 0 1 12.9546 7.34094)" fill="#000000"/>
<rect width="1.38799" height="0.863636" transform="matrix(-1 0 0 1 13.4172 7.77271)" fill="#000000"/>
<rect x="6.01463" y="8.63635" width="0.925325" height="2.15909" fill="#000000"/>
<rect width="0.925325" height="2.15909" transform="matrix(-1 0 0 1 14.3425 8.63635)" fill="#000000"/>
<rect x="7.86527" y="6.90906" width="0.925325" height="1.29545" fill="#000000"/>
<rect width="0.925325" height="0.863636" transform="matrix(-1 0 0 1 12.4919 6.90906)" fill="#000000"/>
<rect x="8.32794" y="6.47729" width="0.925325" height="1.29545" fill="#000000"/>
<rect x="7.4026" y="7.34094" width="0.925325" height="1.29545" fill="#000000"/>
<rect x="11.1039" y="5.18188" width="0.925325" height="0.863636" fill="#000000"/>
<rect x="7.86527" y="12.5227" width="1.38799" height="0.863636" fill="#000000"/>
<rect x="9.25324" y="12.5227" width="1.38799" height="0.863636" fill="#000000"/>
<rect x="9.71591" y="13.3864" width="1.38799" height="6.04545" fill="#000000"/>
<rect x="7.4026" y="6.04541" width="1.38799" height="0.863636" fill="#000000"/>
<rect width="1.38799" height="0.863636" transform="matrix(-1 0 0 1 12.9546 6.04541)" fill="#000000"/>
<rect x="7.4026" y="11.2273" width="1.85065" height="0.863636" fill="#000000"/>
<rect x="6.93993" y="10.7954" width="1.85065" height="0.431818" fill="#000000"/>
<rect x="6.47726" y="10.3636" width="1.85065" height="0.431818" fill="#000000"/>
<rect x="6.01463" y="8.63635" width="1.85065" height="1.72727" fill="#000000"/>
<rect width="1.38799" height="0.863636" transform="matrix(-1 0 0 1 13.8799 7.34094)" fill="#000000"/>
<rect x="6.93993" y="6.90906" width="1.38799" height="0.863636" fill="#000000"/>
<rect width="1.38799" height="0.863636" transform="matrix(-1 0 0 1 13.4172 6.90906)" fill="#000000"/>
<rect x="6.47726" y="6.90906" width="1.38799" height="0.863636" fill="#000000"/>
<rect width="1.38799" height="0.863636" transform="matrix(-1 0 0 1 13.8799 6.90906)" fill="#000000"/>
<rect x="6.93993" y="6.47729" width="1.38799" height="0.863636" fill="#000000"/>
<rect width="1.38799" height="0.863636" transform="matrix(-1 0 0 1 13.4172 6.47729)" fill="#000000"/>
<rect x="5.55196" y="8.20459" width="1.38799" height="2.59091" fill="#000000"/>
<rect width="1.38799" height="2.59091" transform="matrix(-1 0 0 1 14.8052 8.20459)" fill="#000000"/>
<rect x="5.08929" y="8.20459" width="2.31331" height="3.02273" fill="#000000"/>
<rect x="12.9546" y="8.20459" width="2.31331" height="3.02273" fill="#000000"/>
<rect x="12.4919" y="8.20459" width="2.31331" height="2.59091" fill="#000000"/>
<rect x="6.01463" y="7.34094" width="1.38799" height="1.29545" fill="#000000"/>
<rect width="1.38799" height="1.29545" transform="matrix(-1 0 0 1 14.3425 7.34094)" fill="#000000"/>
<rect x="9.71591" y="12.9546" width="2.31331" height="2.59091" fill="#000000"/>
<rect x="5.55196" y="10.3636" width="1.38799" height="1.29545" fill="#000000"/>
<rect width="1.38799" height="1.29545" transform="matrix(-1 0 0 1 14.8052 10.3636)" fill="#000000"/>
<rect x="7.86527" y="17.7046" width="1.38799" height="0.863636" fill="#000000"/>
<rect x="6.93993" y="16.8409" width="1.38799" height="0.863636" fill="#000000"/>
<rect width="1.38799" height="2.15909" transform="matrix(1 0 0 -1 6.93993 3.02271)" fill="#000000"/>
<rect width="1.38799" height="2.15909" transform="matrix(1 0 0 -1 12.0292 3.02271)" fill="#000000"/>
<rect x="7.4026" y="17.2727" width="1.38799" height="0.863636" fill="#000000"/>
<rect x="11.1039" y="16.8409" width="1.38799" height="1.72727" fill="#000000"/>
<rect width="1.38799" height="0.863636" transform="matrix(1 0 0 -1 7.4026 1.29541)" fill="#000000"/>
<rect x="8.32794" y="12.9546" width="1.38799" height="6.47727" fill="#000000"/>
<rect x="8.79061" y="12.9546" width="1.38799" height="6.47727" fill="#000000"/>
<rect x="11.1039" y="13.3864" width="0.925325" height="6.04545" fill="#000000"/>
<rect width="4.62662" height="1.29545" transform="matrix(1 0 0 -1 7.86527 1.29541)" fill="#000000"/>
<rect x="7.86527" y="0.863647" width="0.925325" height="0.863636" fill="#000000"/>
<rect x="6.93993" y="2.59094" width="0.925325" height="0.863636" fill="#000000"/>
<rect x="12.4919" y="2.59094" width="0.925325" height="0.863636" fill="#000000"/>
<rect x="6.93993" y="3.02271" width="0.925325" height="0.863636" fill="#000000"/>
<rect x="12.4919" y="3.02271" width="0.925325" height="0.863636" fill="#000000"/>
<rect x="11.5666" y="0.863647" width="0.925325" height="0.863636" fill="#000000"/>
<rect x="12.0292" y="0.431885" width="0.925325" height="0.863636" fill="#000000"/>
<rect x="4.16396" y="12.5227" width="0.925325" height="0.863636" fill="#000000"/>
<rect x="3.23866" y="12.0909" width="1.38799" height="1.72727" fill="#000000"/>
<rect width="1.38799" height="1.72727" transform="matrix(1 0 0 -1 2.77599 7.34094)" fill="#000000"/>
<rect width="1.38799" height="0.863636" transform="matrix(1 0 0 -1 2.31332 6.04541)" fill="#000000"/>
<rect width="1.38799" height="0.863636" transform="matrix(1 0 0 -1 1.85065 5.61365)" fill="#000000"/>
<rect width="1.38799" height="0.863636" transform="matrix(1 0 0 -1 1.38798 5.18188)" fill="#000000"/>
<rect width="1.38799" height="0.863636" transform="matrix(1 0 0 -1 1.85065 4.75)" fill="#000000"/>
<rect width="1.38799" height="0.863636" transform="matrix(1 0 0 -1 2.31332 4.31824)" fill="#000000"/>
<rect width="1.38799" height="0.863636" transform="matrix(1 0 0 -1 2.77599 3.88635)" fill="#000000"/>
<rect width="1.38799" height="0.863636" transform="matrix(1 0 0 -1 3.23866 3.45459)" fill="#000000"/>
<rect width="1.38799" height="0.863636" transform="matrix(1 0 0 -1 3.70132 3.02271)" fill="#000000"/>
<rect width="1.38799" height="0.863636" transform="matrix(1 0 0 -1 4.16396 2.59094)" fill="#000000"/>
<rect width="1.38799" height="0.863636" transform="matrix(1 0 0 -1 4.62663 3.02271)" fill="#000000"/>
<rect width="1.38799" height="0.863636" transform="matrix(1 0 0 -1 5.08929 3.45459)" fill="#000000"/>
<rect width="1.38799" height="0.863636" transform="matrix(1 0 0 -1 5.55196 3.88635)" fill="#000000"/>
<rect width="1.38799" height="1.72727" transform="matrix(1 0 0 -1 3.23866 7.77271)" fill="#000000"/>
<rect y="7.77274" width="1.38799" height="4.31818" fill="#000000"/>
<rect width="0.925325" height="0.863636" transform="matrix(1 0 0 -1 18.5065 12.0909)" fill="#000000"/>
<rect width="0.925325" height="0.863636" transform="matrix(1 0 0 -1 18.5065 8.63635)" fill="#000000"/>
<rect width="3.23864" height="0.863636" transform="matrix(1 0 0 -1 16.1932 7.77271)" fill="#000000"/>
<rect width="1.38799" height="0.863636" transform="matrix(1 0 0 -1 16.1932 12.5227)" fill="#000000"/>
<rect width="2.31331" height="0.863636" transform="matrix(1 0 0 -1 16.6558 12.9546)" fill="#000000"/>
<rect width="2.77597" height="0.863636" transform="matrix(1 0 0 -1 16.1932 8.20459)" fill="#000000"/>
<rect width="2.31331" height="0.863636" transform="matrix(1 0 0 -1 16.6558 12.5227)" fill="#000000"/>
<rect width="1.85065" height="0.863636" transform="matrix(1 0 0 -1 18.0438 8.20459)" fill="#000000"/>
<rect width="1.85065" height="0.863636" transform="matrix(1 0 0 -1 18.0438 12.5227)" fill="#000000"/>
<rect width="1.38799" height="1.72727" transform="matrix(1 0 0 -1 16.1932 14.25)" fill="#000000"/>
<rect x="15.2679" y="6.47729" width="1.38799" height="0.863636" fill="#000000"/>
<rect width="1.38799" height="0.863636" transform="matrix(1 0 0 -1 16.6558 14.6819)" fill="#000000"/>
<rect width="1.38799" height="0.863636" transform="matrix(1 0 0 -1 17.1185 15.1136)" fill="#000000"/>
<rect width="1.38799" height="1.29545" transform="matrix(1 0 0 -1 17.5812 15.9773)" fill="#000000"/>
<rect width="1.38799" height="0.863636" transform="matrix(1 0 0 -1 17.1185 16.4091)" fill="#000000"/>
<rect width="1.38799" height="0.863636" transform="matrix(1 0 0 -1 16.6558 16.8409)" fill="#000000"/>
<rect width="1.38799" height="0.863636" transform="matrix(1 0 0 -1 16.1932 17.2727)" fill="#000000"/>
<rect width="1.38799" height="0.863636" transform="matrix(1 0 0 -1 15.7305 17.7046)" fill="#000000"/>
<rect width="1.38799" height="0.863636" transform="matrix(1 0 0 -1 15.2679 18.1364)" fill="#000000"/>
<rect width="1.38799" height="0.863636" transform="matrix(1 0 0 -1 14.8052 18.5682)" fill="#000000"/>
<rect width="1.38799" height="0.863636" transform="matrix(1 0 0 -1 14.3425 18.1364)" fill="#000000"/>
<rect width="1.38799" height="0.863636" transform="matrix(1 0 0 -1 13.8799 17.7046)" fill="#000000"/>
<rect width="0.925325" height="0.863636" transform="matrix(1 0 0 -1 12.4919 17.7046)" fill="#000000"/>
<rect width="2.31331" height="0.863636" transform="matrix(1 0 0 -1 12.4919 17.2727)" fill="#000000"/>
<rect width="1.38799" height="0.863636" transform="matrix(1 0 0 -1 6.01463 16.8409)" fill="#000000"/>
<rect width="1.38799" height="0.863636" transform="matrix(1 0 0 -1 12.9546 16.8409)" fill="#000000"/>
<rect width="1.38799" height="0.863636" transform="matrix(1 0 0 -1 11.5666 18.1364)" fill="#000000"/>
<rect width="0.925325" height="0.863636" transform="matrix(1 0 0 -1 15.2679 13.3864)" fill="#000000"/>
<rect width="1.38799" height="1.72727" transform="matrix(1 0 0 -1 15.7305 13.8182)" fill="#000000"/>
<rect x="16.1932" y="5.61365" width="1.38799" height="1.72727" fill="#000000"/>
<rect x="16.6558" y="5.18188" width="1.38799" height="0.863636" fill="#000000"/>
<rect x="17.1185" y="4.75" width="1.38799" height="0.863636" fill="#000000"/>
<rect x="17.5812" y="4.31824" width="1.38799" height="0.863636" fill="#000000"/>
<rect x="17.1185" y="3.88635" width="1.38799" height="0.863636" fill="#000000"/>
<rect x="16.6558" y="3.45459" width="1.38799" height="0.863636" fill="#000000"/>
<rect x="16.1932" y="3.02271" width="1.38799" height="0.863636" fill="#000000"/>
<rect x="15.7305" y="2.59094" width="1.38799" height="0.863636" fill="#000000"/>
<rect x="15.2679" y="2.15906" width="1.38799" height="0.863636" fill="#000000"/>
<rect x="14.8052" y="1.72729" width="1.38799" height="0.863636" fill="#000000"/>
<rect x="14.3425" y="2.15906" width="1.38799" height="0.863636" fill="#000000"/>
<rect x="13.8799" y="2.59094" width="1.38799" height="0.863636" fill="#000000"/>
<rect x="13.4172" y="3.02271" width="1.38799" height="0.863636" fill="#000000"/>
<rect x="15.7305" y="6.04541" width="1.38799" height="1.72727" fill="#000000"/>
<rect width="1.38799" height="4.31818" transform="matrix(1 0 0 -1 18.9692 12.0909)" fill="#000000"/>
</svg>
